<svg xmlns="http://www.w3.org/2000/svg" width="20" height="20" fill="none" viewBox="0 0 20 20">
  <path fill="#000" d="M10 .4C4.698.4.4 4.698.4 10s4.298 9.6 9.6 9.6 9.6-4.298 9.6-9.6S15.302.4 10 .4ZM4.4 15.713c.934-2.8 3.734-1.707 4.2-3.224v-1.011c-.21-.113-.81-.888-.874-1.492-.165-.015-.424-.179-.501-.828-.041-.348.122-.544.22-.605 0 0-.246-.562-.246-1.12C7.2 5.777 8.021 4.4 10 4.4c1.069 0 1.4.758 1.4.758.955 0 1.4 1.047 1.4 2.275 0 .612-.246 1.119-.246 1.119.099.062.262.258.221.606-.077.648-.336.812-.501.827-.064.605-.664 1.379-.874 1.492v1.011c.466 1.518 3.266.425 4.2 3.225 0 0-2.094 2.287-5.6 2.287-3.526 0-5.6-2.287-5.6-2.287Z"/>
</svg>
