<svg xmlns="http://www.w3.org/2000/svg" width="24" height="21" fill="none" viewBox="0 0 24 21">
  <path fill="#000" fill-opacity=".85" d="M8.987 19.832h5.729v-7.229c0-.456-.298-.754-.754-.754H9.75c-.466 0-.764.298-.764.755v7.228Zm-3.883 1.023H18.54c1.41 0 2.234-.804 2.234-2.195V7.69l-1.599-1.092v11.657c0 .646-.347 1.004-.973 1.004H5.442c-.636 0-.983-.358-.983-1.004V6.606l-1.6 1.082v10.973c0 1.39.825 2.195 2.245 2.195M0 9.804c0 .407.318.795.854.795.278 0 .506-.15.715-.318l9.94-8.341c.218-.199.486-.199.704 0l9.94 8.341c.199.17.427.318.706.318.466 0 .844-.288.844-.765a.813.813 0 0 0-.309-.675L13.058.47c-.735-.626-1.649-.626-2.393 0L.318 9.16A.83.83 0 0 0 0 9.803Zm18.28-4.48 2.493 2.107V2.842c0-.436-.278-.714-.715-.714h-1.062c-.427 0-.715.278-.715.714v2.483Z"/>
</svg>
