<svg xmlns="http://www.w3.org/2000/svg" width="18" height="24" fill="none" viewBox="0 0 18 24">
  <path fill="#000" fill-opacity=".85" d="m2.049 21.841 11.822 2.09c2.12.375 3.41-.8 3.41-3.119V7.95c0-2.12-1.09-2.89-3.202-3.255L2.608 2.668C1.03 2.388 0 3.25 0 4.81v14.67c0 1.342.686 2.12 2.049 2.36Zm.405-1.653c-.53-.083-.78-.395-.78-.946V5.09c0-.56.375-.842.988-.738L13.995 6.34c1.05.197 1.612.623 1.612 1.59v12.706c0 1.175-.686 1.768-1.81 1.56L2.454 20.188ZM14.681 5.974h1.675V3.542c0-2.183-1.467-3.233-3.93-2.797L1.56 2.668l.624 1.445 10.833-1.798c1.041-.178 1.665.259 1.665 1.164l-.001 2.495ZM4.273 8.928l8.018 1.413c.488.084.79-.218.79-.655 0-.394-.199-.603-.562-.676L4.544 7.617c-.478-.083-.811.198-.811.624 0 .364.197.624.54.687Zm.001 4.055 8.017 1.414c.489.083.79-.218.79-.656 0-.395-.198-.603-.561-.675l-7.975-1.393c-.479-.083-.811.197-.811.623 0 .364.197.625.54.687Z"/>
</svg>
