<svg xmlns="http://www.w3.org/2000/svg" width="22" height="20" fill="none" viewBox="0 0 22 20">
  <path fill="#000" d="M5.4.4A.8.8 0 1 0 7 .4H5.4Zm3.2 0a2.4 2.4 0 1 0 4.8 0H8.6Zm6.4 0a.8.8 0 0 0 1.6 0H15ZM7.606 2.994a.8.8 0 1 0 0 1.6.8.8 0 0 0 0-1.6Zm6.788 0a.8.8 0 1 0 0 1.6.8.8 0 0 0 0-1.6ZM11 4.4A.8.8 0 1 0 11 6a.8.8 0 0 0 0-1.6ZM1.4 7.6a.8.8 0 0 0 0 1.6h19.2a.8.8 0 0 0 0-1.6H1.4Zm.8 3.2-.794 7.908-.001.024-.002.008-.003.06a.8.8 0 0 0 1.564.236l2.75-5.836h10.572l2.75 5.836h.002a.8.8 0 0 0 1.55-.372L19.8 10.8H2.2Z"/>
</svg>
